<svg width="630" height="210" viewBox="0 0 630 210" fill="none" xmlns="http://www.w3.org/2000/svg">
<path d="M153.667 1C138.667 1 127.5 47 112.667 68.5C112.667 68.5 114.667 68 36.6667 80C-41.3333 92 36.6667 151.5 36.6667 151.5H112.667C112.667 151.5 141.226 107.451 153.667 101.5C166.107 95.5494 189.27 94.5738 211.667 101.5C234.064 108.426 251.167 151.5 251.167 151.5H428.167C428.167 151.5 420.903 126.732 448.167 101.5C471.208 91.0413 484.126 90.3756 507.167 101.5C526.765 109.902 534.396 121.028 540.667 151.5H596.667C596.667 151.5 667.667 90 596.667 80C525.667 70 507.167 68.5 507.167 68.5C507.167 68.5 468.167 1 448.167 1C428.167 1 168.667 1 153.667 1Z" stroke="black"/>
<circle cx="179.5" cy="160.5" r="49" stroke="black"/>
<circle cx="484.5" cy="160.5" r="49" stroke="black"/>
<path d="M615 131L585.5 80C611.136 81.5559 625 82.5 628.5 102.5C632 122.5 615 131 615 131Z" fill="#FBFF00" fill-opacity="0.99" stroke="black"/>
<path d="M10 123.5C11.3334 125.5 14.5 120.7 16.5 85.5C16.5 85.5 8.50003 88 5.00003 92C1.50003 96 1.00003 102 1.50003 108C2.00003 114 10 123.5 10 123.5Z" fill="#CF0003" stroke="black"/>
</svg>
