<svg width="50" height="50" viewBox="0 0 50 50" fill="none" xmlns="http://www.w3.org/2000/svg">
<path d="M10.4167 27.0833L13.5417 17.7083H36.4583L39.5833 27.0833H10.4167ZM36.4583 37.5C34.7917 37.5 33.3333 36.0417 33.3333 34.375C33.3333 32.7083 34.7917 31.25 36.4583 31.25C38.125 31.25 39.5833 32.7083 39.5833 34.375C39.5833 36.0417 38.125 37.5 36.4583 37.5ZM13.5417 37.5C11.875 37.5 10.4167 36.0417 10.4167 34.375C10.4167 32.7083 11.875 31.25 13.5417 31.25C15.2083 31.25 16.6667 32.7083 16.6667 34.375C16.6667 36.0417 15.2083 37.5 13.5417 37.5ZM39.375 16.6667C38.9583 15.4167 37.7083 14.5833 36.4583 14.5833H13.5417C12.0833 14.5833 11.0417 15.4167 10.625 16.6667L6.25 29.1667V45.8333C6.25 47.0833 7.08333 47.9167 8.33333 47.9167H10.4167C11.6667 47.9167 12.5 47.0833 12.5 45.8333V43.75H37.5V45.8333C37.5 47.0833 38.3333 47.9167 39.5833 47.9167H41.6667C42.9167 47.9167 43.75 47.0833 43.75 45.8333V29.1667L39.375 16.6667ZM16.6667 2.08333L25 11.4583L33.3333 2.08333H16.6667Z" fill="black"/>
</svg>
