<svg width="49" height="51" viewBox="0 0 49 51" fill="none"
    xmlns="http://www.w3.org/2000/svg">
    <rect x="0.5" y="0.5" width="48" height="50" rx="19.5" fill="#FAFAFA" stroke="black"/>
    <path d="M19.0179 8.9614C14.6693 10.4215 10.9606 13.6162 8.90127 17.6437C8.18151 19.0353 7.66169 20.515 7.3518 22.0437C6.56206 25.8459 7.11188 29.8931 8.90127 33.3621C10.0609 35.6258 11.7303 37.6347 13.7496 39.2026C15.659 40.6921 17.8782 41.7897 20.2374 42.407C23.2064 43.191 26.3754 43.1714 29.3744 42.505C32.0834 41.8975 34.6426 40.6235 36.6819 38.7812C38.8412 36.8311 40.3806 34.2735 41.2004 31.5198C42.0901 28.5114 42.21 25.3069 41.6502 22.2299C36.0521 22.2299 30.454 22.2299 24.8459 22.2299C24.8459 24.5034 24.8459 26.7867 24.8459 29.0601C28.0848 29.0601 31.3337 29.0601 34.5726 29.0601C34.1927 31.2454 32.8732 33.2347 30.9938 34.4695C29.8142 35.2436 28.4647 35.7532 27.0651 35.9884C25.6556 36.2236 24.2061 36.253 22.8066 35.9786C21.3771 35.7042 20.0175 35.1162 18.8279 34.2931C16.9286 32.9897 15.479 31.069 14.7393 28.923C13.9796 26.7377 13.9696 24.2976 14.7393 22.1123C15.2691 20.5738 16.1588 19.1431 17.3284 17.9867C18.7679 16.5364 20.6373 15.5075 22.6566 15.0861C24.386 14.7235 26.2054 14.7921 27.8949 15.2919C29.3344 15.723 30.6539 16.4874 31.7436 17.5065C32.8432 16.4384 33.9328 15.3605 35.0324 14.2923C35.6022 13.7141 36.212 13.1654 36.7719 12.5676C35.1124 11.0585 33.1531 9.84335 31.0238 9.07899C27.2051 7.67766 22.8765 7.64827 19.0179 8.9614Z" fill="white"/>
    <path d="M19.0177 8.961C22.8764 7.64787 27.2049 7.67727 31.0436 9.0688C33.1729 9.83316 35.1223 11.0483 36.7917 12.5574C36.2319 13.1454 35.6321 13.704 35.0523 14.2821C33.9527 15.3503 32.863 16.4282 31.7634 17.4964C30.6738 16.4772 29.3542 15.703 27.9147 15.2817C26.2253 14.7819 24.4059 14.7133 22.6765 15.0759C20.6572 15.4973 18.7878 16.536 17.3483 17.9765C16.1787 19.1329 15.289 20.5636 14.7592 22.1021C12.8098 20.6224 10.8605 19.1329 8.91113 17.6531C10.9604 13.6158 14.6692 10.4211 19.0177 8.961Z" fill="#E94435"/>
    <path d="M7.3518 22.0433C7.66169 20.5146 8.19151 19.0349 8.90127 17.6433C10.8506 19.1231 12.8 20.6126 14.7493 22.0923C13.9796 24.2776 13.9896 26.7177 14.7493 28.9029C12.8 30.3827 10.8506 31.8722 8.90127 33.3519C7.11188 29.9025 6.56206 25.8455 7.3518 22.0433Z" fill="#F8BB15"/>
    <path d="M24.8561 22.2197C30.4542 22.2197 36.0523 22.2197 41.6604 22.2197C42.2202 25.2968 42.1003 28.5012 41.2106 31.5096C40.3908 34.2633 38.8514 36.8308 36.6921 38.7711C34.8027 37.3305 32.9034 35.89 31.024 34.4495C32.9034 33.2245 34.2229 31.2255 34.6028 29.0402C31.3639 29.0402 28.115 29.0402 24.8761 29.0402C24.8461 26.7765 24.8561 24.503 24.8561 22.2197Z" fill="#547DBE"/>
    <path d="M8.90137 33.3617C10.8507 31.882 12.8 30.3925 14.7494 28.9128C15.4891 31.0687 16.9387 32.9796 18.838 34.2829C20.0276 35.1061 21.3871 35.6842 22.8167 35.9684C24.2162 36.2428 25.6757 36.2134 27.0752 35.9782C28.4748 35.743 29.8243 35.2334 31.0039 34.4593C32.8933 35.8998 34.7926 37.3403 36.672 38.7809C34.6327 40.633 32.0735 41.8971 29.3645 42.5047C26.3755 43.171 23.2065 43.1906 20.2275 42.4067C17.8683 41.7893 15.6491 40.6918 13.7397 39.2022C11.7304 37.6245 10.061 35.6156 8.90137 33.3617Z" fill="#34A751"/>
</svg>
