<svg width="50" height="50" viewBox="0 0 50 50" fill="none" xmlns="http://www.w3.org/2000/svg">
<path d="M4.16667 6.25C1.85417 6.25 0 8.10417 0 10.4167V18.75C0 21.0625 1.85417 22.9167 4.16667 22.9167H12.5C14.8125 22.9167 16.6667 21.0625 16.6667 18.75V10.4167C16.6667 8.10417 14.8125 6.25 12.5 6.25H4.16667ZM12.9167 9.375L15.125 11.5625L6.8125 19.7917L1.54167 14.4792L3.77083 12.2917L6.83333 15.3958L12.9167 9.375ZM4.16667 27.0833C1.85417 27.0833 0 28.9375 0 31.25V39.5833C0 41.8958 1.85417 43.75 4.16667 43.75H12.5C14.8125 43.75 16.6667 41.8958 16.6667 39.5833V31.25C16.6667 28.9375 14.8125 27.0833 12.5 27.0833H4.16667ZM4.16667 31.25H12.5V39.5833H4.16667V31.25ZM20.8333 10.4167H41.6667V14.5833H20.8333V10.4167ZM20.8333 39.5833V35.4167H41.6667V39.5833H20.8333ZM20.8333 22.9167H41.6667V27.0833H20.8333V22.9167Z" fill="black"/>
</svg>
