<svg width="50" height="50" viewBox="0 0 50 50" fill="none" xmlns="http://www.w3.org/2000/svg">
<path d="M25.62 18.774C24.3377 18.6473 23.0476 18.9201 21.9262 19.555C20.8049 20.19 19.9073 21.1559 19.3562 22.3207C18.8051 23.4855 18.6275 24.7922 18.8477 26.0618C19.0679 27.3314 19.6752 28.502 20.5864 29.4131C21.4975 30.3243 22.668 30.9316 23.9377 31.1518C25.2073 31.372 26.514 31.1944 27.6787 30.6433C28.8435 30.0922 29.8095 29.1945 30.4444 28.0732C31.0793 26.9519 31.3522 25.6618 31.2255 24.3794C31.0811 22.9419 30.4442 21.5985 29.4226 20.5769C28.401 19.5553 27.0576 18.9184 25.62 18.774V18.774ZM40.6689 24.9937C40.6649 25.673 40.615 26.3514 40.5195 27.024L44.9345 30.4869C45.1267 30.6462 45.2563 30.8686 45.3001 31.1144C45.3439 31.3603 45.2991 31.6137 45.1738 31.8296L40.997 39.0562C40.8702 39.2701 40.6719 39.4323 40.4371 39.5143C40.2024 39.5963 39.9462 39.5928 39.7138 39.5044L35.329 37.7388C35.0872 37.6425 34.8253 37.6078 34.5668 37.6376C34.3082 37.6674 34.0611 37.7609 33.8476 37.9097C33.1784 38.3705 32.4752 38.7799 31.7441 39.1343C31.5142 39.246 31.3154 39.4126 31.1652 39.6194C31.015 39.8262 30.918 40.0667 30.8827 40.3199L30.2255 44.9966C30.1823 45.2436 30.0547 45.4679 29.8645 45.6313C29.6743 45.7946 29.4332 45.8868 29.1825 45.8921H20.829C20.5825 45.8879 20.3447 45.7997 20.155 45.6423C19.9652 45.4848 19.8348 45.2674 19.7851 45.0259L19.1288 40.356C19.092 40.1001 18.9925 39.8572 18.8391 39.649C18.6858 39.4408 18.4834 39.2738 18.2499 39.1626C17.5197 38.8101 16.8188 38.3996 16.1542 37.9351C15.9414 37.787 15.6951 37.6943 15.4375 37.6651C15.1799 37.636 14.9191 37.6714 14.6786 37.7681L10.2948 39.5328C10.0625 39.6212 9.80645 39.6249 9.57171 39.543C9.33697 39.4612 9.13863 39.2992 9.01164 39.0855L4.83488 31.8589C4.70931 31.643 4.66444 31.3896 4.70825 31.1437C4.75206 30.8978 4.88172 30.6754 5.07414 30.5162L8.80559 27.5865C9.01002 27.4242 9.17068 27.2134 9.27301 26.9733C9.37533 26.7332 9.41607 26.4713 9.39153 26.2115C9.35637 25.8042 9.33488 25.398 9.33488 24.9908C9.33488 24.5835 9.35539 24.1831 9.39153 23.7847C9.41338 23.5264 9.37065 23.2668 9.26717 23.0291C9.16369 22.7915 9.00272 22.5833 8.79875 22.4234L5.06926 19.4937C4.87996 19.3336 4.75304 19.1121 4.71072 18.8678C4.6684 18.6235 4.7134 18.3722 4.83781 18.1578L9.01457 10.9312C9.14141 10.7173 9.33968 10.5551 9.57443 10.4731C9.80919 10.3911 10.0653 10.3946 10.2978 10.483L14.6825 12.2486C14.9243 12.3449 15.1863 12.3796 15.4448 12.3498C15.7033 12.32 15.9505 12.2265 16.164 12.0777C16.8332 11.6169 17.5364 11.2075 18.2675 10.8531C18.4974 10.7414 18.6962 10.5748 18.8464 10.368C18.9966 10.1612 19.0936 9.92066 19.1288 9.66752L19.7861 4.99077C19.8292 4.74378 19.9568 4.51944 20.1471 4.35611C20.3373 4.19277 20.5783 4.10057 20.829 4.09526H29.1825C29.4291 4.09952 29.6668 4.18764 29.8566 4.3451C30.0463 4.50255 30.1768 4.71995 30.2265 4.96147L30.8827 9.63139C30.9196 9.88732 31.0191 10.1302 31.1724 10.3384C31.3258 10.5466 31.5282 10.7136 31.7616 10.8248C32.4919 11.1772 33.1927 11.5877 33.8573 12.0523C34.0701 12.2003 34.3164 12.2931 34.574 12.3223C34.8316 12.3514 35.0924 12.316 35.3329 12.2193L39.7167 10.4546C39.949 10.3662 40.2051 10.3625 40.4399 10.4443C40.6746 10.5262 40.8729 10.6882 40.9999 10.9019L45.1767 18.1285C45.3023 18.3444 45.3471 18.5978 45.3033 18.8437C45.2595 19.0896 45.1298 19.312 44.9374 19.4712L41.206 22.4009C41.0007 22.5627 40.8391 22.7732 40.7359 23.0134C40.6327 23.2535 40.5912 23.5156 40.6152 23.7759C40.6474 24.1802 40.6689 24.5865 40.6689 24.9937Z" stroke="black" stroke-width="3" stroke-linecap="round" stroke-linejoin="round"/>
</svg>
